<svg width="20" height="20" viewBox="0 0 20 20" fill="#a3c93a" xmlns="http://www.w3.org/2000/svg">
<path fill-rule="evenodd" clip-rule="evenodd" d="M10 4.56791C8.02269 4.56791 6.41976 6.17084 6.41976 8.14815C6.41976 10.1255 8.02269 11.7284 10 11.7284C11.9773 11.7284 13.5803 10.1255 13.5803 8.14815C13.5803 6.17084 11.9773 4.56791 10 4.56791ZM4.93828 8.14815C4.93828 5.35264 7.20449 3.08643 10 3.08643C12.7955 3.08643 15.0617 5.35264 15.0617 8.14815C15.0617 10.9437 12.7955 13.2099 10 13.2099C7.20449 13.2099 4.93828 10.9437 4.93828 8.14815Z" fill="black"/>
<path fill-rule="evenodd" clip-rule="evenodd" d="M6.6343 14.8696C7.70094 14.4258 8.84482 14.1974 10.0001 14.1974C11.1554 14.1974 12.2992 14.4258 13.3659 14.8696C14.4325 15.3134 15.4009 15.9637 16.2152 16.7832C16.5036 17.0734 16.5021 17.5424 16.2119 17.8307C15.9218 18.1191 15.4528 18.1176 15.1644 17.8275C14.4877 17.1466 13.6831 16.6062 12.7968 16.2374C11.9105 15.8687 10.96 15.6789 10.0001 15.6789C9.04015 15.6789 8.08968 15.8687 7.20338 16.2374C6.31709 16.6062 5.51246 17.1466 4.8358 17.8275C4.54743 18.1176 4.07842 18.1191 3.78824 17.8307C3.49806 17.5424 3.49659 17.0734 3.78496 16.7832C4.5993 15.9637 5.56766 15.3134 6.6343 14.8696Z" fill="black"/>
<path fill-rule="evenodd" clip-rule="evenodd" d="M10 1.48148C5.29535 1.48148 1.48148 5.29535 1.48148 10C1.48148 14.7046 5.29535 18.5185 10 18.5185C14.7046 18.5185 18.5185 14.7046 18.5185 10C18.5185 5.29535 14.7046 1.48148 10 1.48148ZM0 10C0 4.47715 4.47715 0 10 0C15.5228 0 20 4.47715 20 10C20 15.5228 15.5228 20 10 20C4.47715 20 0 15.5228 0 10Z" fill="black"/>
</svg>
