<svg xmlns="http://www.w3.org/2000/svg" fill="#a3c93a" color="#a3c93a" xmlns:xlink="http://www.w3.org/1999/xlink" viewBox="0,0 200,200">
<defs>
  <clipPath id="ring">
    <path d="M200,100A100,100,0,1,1,197.81,79.21L188.03,81.29A90,90,0,1,0,190,100z"/>
  </clipPath>
  <filter id="blur" x="0" y="0">
    <feGaussianBlur in="SourceGraphic" stdDeviation="3" />
  </filter>
  <path id="p" d="M250,100A150,150,0,0,1,246.72,131.19L100,100A0,0,0,0,0,100,100z" fill="black"/>
</defs>
  <g clip-path="url(#ring)">
    <g filter="url(#blur)" transform="rotate(-6 100 100)">
      <use xlink:href="#p" fill-opacity="0" transform="rotate(0 100 100)"/>
      <use xlink:href="#p" fill-opacity=".03" transform="rotate(12 100 100)"/>
      <use xlink:href="#p" fill-opacity=".07" transform="rotate(24 100 100)"/>
      <use xlink:href="#p" fill-opacity=".1" transform="rotate(36 100 100)"/>
      <use xlink:href="#p" fill-opacity=".14" transform="rotate(48 100 100)"/>
      <use xlink:href="#p" fill-opacity=".17" transform="rotate(60 100 100)"/>
      <use xlink:href="#p" fill-opacity=".2" transform="rotate(72 100 100)"/>
      <use xlink:href="#p" fill-opacity=".24" transform="rotate(84 100 100)"/>
      <use xlink:href="#p" fill-opacity=".28" transform="rotate(96 100 100)"/>
      <use xlink:href="#p" fill-opacity=".31" transform="rotate(108 100 100)"/>
      <use xlink:href="#p" fill-opacity=".34" transform="rotate(120 100 100)"/>
      <use xlink:href="#p" fill-opacity=".38" transform="rotate(132 100 100)"/>
      <use xlink:href="#p" fill-opacity=".41" transform="rotate(144 100 100)"/>
      <use xlink:href="#p" fill-opacity=".45" transform="rotate(156 100 100)"/>
      <use xlink:href="#p" fill-opacity=".48" transform="rotate(168 100 100)"/>
      <use xlink:href="#p" fill-opacity=".52" transform="rotate(180 100 100)"/>
      <use xlink:href="#p" fill-opacity=".55" transform="rotate(192 100 100)"/>
      <use xlink:href="#p" fill-opacity=".59" transform="rotate(204 100 100)"/>
      <use xlink:href="#p" fill-opacity=".62" transform="rotate(216 100 100)"/>
      <use xlink:href="#p" fill-opacity=".66" transform="rotate(228 100 100)"/>
      <use xlink:href="#p" fill-opacity=".69" transform="rotate(240 100 100)"/>
      <use xlink:href="#p" fill-opacity=".7" transform="rotate(252 100 100)"/>
      <use xlink:href="#p" fill-opacity=".72" transform="rotate(264 100 100)"/>
      <use xlink:href="#p" fill-opacity=".76" transform="rotate(276 100 100)"/>
      <use xlink:href="#p" fill-opacity=".79" transform="rotate(288 100 100)"/>
      <use xlink:href="#p" fill-opacity=".83" transform="rotate(300 100 100)"/>
      <use xlink:href="#p" fill-opacity=".86" transform="rotate(312 100 100)"/>
      <use xlink:href="#p" fill-opacity=".93" transform="rotate(324 100 100)"/>
      <use xlink:href="#p" fill-opacity=".97" transform="rotate(336 100 100)"/>
      <use xlink:href="#p" fill-opacity="1" transform="rotate(348 100 100)"/>
    </g>
  </g>
</svg>
